<?xml version="1.0" encoding="utf-8"?>
<svg width="50px" height="50px" viewBox="0 0 23 23" fill="none" xmlns="http://www.w3.org/2000/svg" b-nf6h0e9jde=""><path fill-rule="evenodd" clip-rule="evenodd" d="M4.18182 11.5C4.18182 15.5417 7.45827 18.8182 11.5 18.8182C12.6686 18.8182 13.7733 18.5443 14.7532 18.0571L17.8112 21.115C15.9994 22.3067 13.8307 23 11.5 23C5.14872 23 0 17.8513 0 11.5C0 5.14872 5.14872 0 11.5 0C13.9719 0 16.2617 0.779913 18.1366 2.10709L15.1106 5.13308C14.0453 4.52761 12.813 4.18182 11.5 4.18182C7.45827 4.18182 4.18182 7.45827 4.18182 11.5ZM19.7322 19.5315C21.916 17.4383 23 14.7639 23 11.5C23 8.37541 22.0224 6.07263 20 4L17.0427 6.95736C18.3085 8.27292 18.8182 9.5302 18.8182 11.5C18.8182 13.6091 18.2017 15.2379 16.7741 16.5734L19.7322 19.5315Z" fill="white" b-nf6h0e9jde=""></path></svg>